<svg width="32" height="18" viewBox="0 0 32 18" fill="none" xmlns="http://www.w3.org/2000/svg">
<path d="M2.12496 9L3.76246 10.6375C10.5125 17.3875 21.4937 17.3875 28.2437 10.6375L29.875 9L28.2375 7.3625C21.4875 0.6125 10.5062 0.6125 3.75621 7.3625L2.12496 9ZM16 16.8875C11.2625 16.8875 6.52496 15.0813 2.91871 11.475L0.862463 9.41875C0.631213 9.1875 0.631213 8.8125 0.862463 8.575L2.91871 6.51875C10.1312 -0.69375 21.8687 -0.69375 29.0812 6.51875L31.1375 8.575C31.3687 8.80625 31.3687 9.18125 31.1375 9.41875L29.0812 11.475C25.475 15.0813 20.7375 16.8875 16 16.8875Z" fill="black" stroke="black" stroke-width="0.3"/>
<path d="M16 4.46875C13.5 4.46875 11.4687 6.5 11.4687 9C11.4687 11.5 13.5 13.5312 16 13.5312C18.5 13.5312 20.5312 11.5 20.5312 9C20.5312 6.5 18.5 4.46875 16 4.46875ZM16 14.7188C12.8437 14.7188 10.2812 12.15 10.2812 9C10.2812 5.84375 12.85 3.28125 16 3.28125C19.15 3.28125 21.7187 5.85 21.7187 9C21.7187 12.1562 19.1562 14.7188 16 14.7188Z" fill="black" stroke="black" stroke-width="0.3"/>
</svg>
